#!OML:ASF E:\emotionWalksFemale\Project 1\Capture day 1\Session 1\Female1.ASF
:FULLY-SPECIFIED
:DEGREES
434
root 8.53324 15.3953 19.8936 361.146 11.2482 -0.549472
lowerback 6.83789 2.81678 2.83294
upperback -4.58951 4.03725 -0.68086
thorax -8.44038 1.78518 -2.86634
lowerneck -4.40107 -8.06704 -12.3054
upperneck 2.04132 -10.4489 9.96144
head 2.4936 -5.1089 4.52247
rclavicle -2.77926e-014 -2.5842e-015
rhumerus -42.1466 21.3751 -99.7324
rradius 52.5912
rwrist 16.887
rhand -2.03723 -51.8066
rfingers 7.12502
rthumb 23.6377 -800.373
lclavicle -2.77926e-014 -2.5842e-015
lhumerus -55.4563 10.1516 76.333
lradius 37.0859
lwrist -14.183
lhand 30.4089 -29.739
lfingers 7.12502
lthumb 54.0742 -10.9512
rfemur -5.36062 11.2687 27.8281
rtibia 22.3427
rfoot -24.8961 -31.3832
rtoes -2.44296
lfemur -13.302 -15.2488 -24.2089
ltibia 30.0382
lfoot -30.5512 12.1504
ltoes -33.9332
435
root 8.52394 15.4001 19.8775 360.871 11.1057 -0.598637
lowerback 7.2806 2.73931 2.89876
upperback -4.59304 3.95243 -0.702285
thorax -8.70404 1.73081 -2.94288
lowerneck -4.13166 -7.99222 -12.1659
upperneck 2.0774 -10.3815 9.79656
head 2.43657 -5.08544 4.466
rclavicle -5.23052e-015 2.38542e-015
rhumerus -42.2031 21.3283 -99.8881
rradius 51.9183
rwrist 17.3365
rhand -1.88818 -52.2365
rfingers 7.12502
rthumb 23.7806 -800.785
lclavicle -5.23052e-015 2.38542e-015
lhumerus -54.3963 10.6708 75.8681
lradius 36.6372
lwrist -15.2286
lhand 28.3893 -28.3819
lfingers 7.12502
lthumb 52.2532 -8.42786
rfemur -4.70986 11.8868 28.017
rtibia 21.6332
rfoot -24.6782 -31.7085
rtoes -1.10642
lfemur -13.004 -15.0701 -24.1811
ltibia 29.9038
lfoot -30.409 12.5492
ltoes -34.0908
436
root 8.51512 15.4043 19.8618 360.564 10.9455 -0.518717
lowerback 7.74973 2.70244 2.8202
upperback -4.59494 3.90704 -0.717652
thorax -8.98902 1.70384 -2.93888
lowerneck -3.57334 -7.89729 -12.0913
upperneck 1.88167 -10.3037 9.65106
head 2.26729 -5.06326 4.44198
rclavicle -2.76808e-014 -7.85199e-015
rhumerus -42.2493 21.0876 -99.9173
rradius 51.0756
rwrist 18.0047
rhand -2.22389 -52.5902
rfingers 7.12502
rthumb 23.4586 -801.18
lclavicle -2.76808e-014 -7.85199e-015
lhumerus -53.3985 11.2482 75.3312
lradius 36.0799
lwrist -16.3671
lhand 24.4429 -29.2637
lfingers 7.12502
lthumb 48.6492 -7.35958
rfemur -4.29634 12.265 28.0514
rtibia 21.4211
rfoot -24.2003 -31.7203
rtoes -1.48465
lfemur -12.6259 -14.9367 -24.3064
ltibia 29.6933
lfoot -30.2455 12.7761
ltoes -33.3686
437
root 8.50852 15.4024 19.8402 360.411 10.7994 -0.222635
lowerback 8.2204 2.65152 2.53322
upperback -4.5423 3.80927 -0.800917
thorax -9.2271 1.66393 -2.88007
lowerneck -3.54031 -7.79625 -12.0055
upperneck 1.85981 -10.1733 9.62422
head 2.23561 -4.99918 4.43097
rclavicle -8.64713e-015 -7.85199e-015
rhumerus -41.98 20.7504 -99.8261
rradius 50.0599
rwrist 18.8634
rhand -2.59901 -52.886
rfingers 7.12502
rthumb 23.0988 -801.521
lclavicle -8.64713e-015 -7.85199e-015
lhumerus -52.0033 12.469 74.3454
lradius 34.8625
lwrist -18.2422
lhand 19.5624 -31.4657
lfingers 7.12502
lthumb 44.1272 -7.63046
rfemur -4.23362 12.6616 27.7958
rtibia 21.5234
rfoot -24.0357 -31.7043
rtoes -0.998251
lfemur -12.3616 -14.9145 -24.6363
ltibia 29.4562
lfoot -29.9628 12.8082
ltoes -33.0853
438
root 8.50512 15.4004 19.8176 360.488 10.5872 0.110457
lowerback 8.44769 2.62041 2.27105
upperback -4.55401 3.72998 -0.925196
thorax -9.38658 1.6326 -2.86832
lowerneck -3.58177 -7.71726 -11.9578
upperneck 1.9329 -10.0698 9.64433
head 2.25169 -4.94635 4.43341
rclavicle -1.14674e-014 -9.14409e-015
rhumerus -41.623 20.3515 -99.6712
rradius 48.8803
rwrist 19.716
rhand -2.86447 -53.4324
rfingers 7.12502
rthumb 22.844 -802.1
lclavicle -1.14674e-014 -9.14409e-015
lhumerus -50.6135 13.5698 73.4479
lradius 33.6039
lwrist -20.1248
lhand 13.8126 -33.6148
lfingers 7.12502
lthumb 38.7328 -8.01873
rfemur -4.49619 13.0432 27.4232
rtibia 21.773
rfoot -24.0347 -31.639
rtoes 0.22662
lfemur -12.3524 -14.8687 -24.9634
ltibia 29.2543
lfoot -29.6495 12.8665
ltoes -33.5512
439
root 8.50596 15.399 19.8028 360.59 10.3078 0.294702
lowerback 8.34927 2.59005 2.16347
upperback -4.50563 3.66497 -1.01514
thorax -9.27976 1.60789 -2.8857
lowerneck -3.5802 -7.64099 -11.771
upperneck 1.9082 -9.97221 9.57518
head 2.22069 -4.89765 4.39051
rclavicle -1.35422e-015 3.77691e-015
rhumerus -41.1108 19.9445 -99.4381
rradius 47.3796
rwrist 20.871
rhand -3.58317 -54.0599
rfingers 7.12502
rthumb 22.1542 -802.811
lclavicle -1.35422e-015 3.77691e-015
lhumerus -49.1458 14.5745 72.7065
lradius 32.2642
lwrist -21.7271
lhand 7.72919 -35.259
lfingers 7.12502
lthumb 32.9695 -8.25233
rfemur -4.77317 13.0907 27.1597
rtibia 22.0163
rfoot -23.9415 -31.3471
rtoes -0.213374
lfemur -12.4127 -14.9286 -25.1234
ltibia 29.1225
lfoot -29.6443 12.6184
ltoes -32.39
440
root 8.50873 15.3986 19.7946 360.569 10.0183 0.210279
lowerback 8.14548 2.54653 2.27749
upperback -4.42985 3.61578 -1.00306
thorax -9.07366 1.5836 -2.91342
lowerneck -3.40186 -7.49453 -11.6472
upperneck 1.77807 -9.79373 9.57834
head 2.12844 -4.81217 4.39285
rclavicle -7.95636e-014 -7.95139e-015
rhumerus -40.6964 19.4305 -99.1648
rradius 45.7023
rwrist 22.3962
rhand -4.57774 -54.5076
rfingers 7.12502
rthumb 21.1991 -803.369
lclavicle -7.95636e-014 -7.95139e-015
lhumerus -47.686 16.0236 71.7282
lradius 30.4588
lwrist -23.5986
lhand 0.329628 -39.7282
lfingers 7.12502
lthumb 25.9061 -11.4732
rfemur -4.86915 12.9771 27.1894
rtibia 22.1217
rfoot -23.7648 -31.0489
rtoes -1.349
lfemur -12.3749 -15.0893 -25.036
ltibia 29.0549
lfoot -29.9302 12.2844
ltoes -30.8062
441
root 8.51145 15.4009 19.7849 360.483 9.66182 0.100927
lowerback 8.00995 2.55419 2.40548
upperback -4.3621 3.6389 -0.980851
thorax -8.91234 1.59278 -2.95376
lowerneck -3.16665 -7.34335 -11.6181
upperneck 1.65567 -9.61606 9.70886
head 2.04077 -4.7272 4.44983
rclavicle -3.47873e-015 1.2921e-015
rhumerus -40.3166 18.8491 -98.838
rradius 44.0863
rwrist 23.2865
rhand -4.72261 -55.1922
rfingers 7.12502
rthumb 21.0599 -804.069
lclavicle -3.47873e-015 1.2921e-015
lhumerus -46.3349 17.3574 70.8601
lradius 28.8908
lwrist -25.0914
lhand -4.15229 -40.6574
lfingers 7.12502
lthumb 21.6077 -11.843
rfemur -4.82885 12.894 27.2526
rtibia 22.064
rfoot -23.3756 -30.8283
rtoes -2.09682
lfemur -12.2308 -15.1562 -24.9909
ltibia 28.9992
lfoot -30.0775 12.6814
ltoes -31.6702
442
root 8.51391 15.4045 19.7749 360.379 9.14718 0.134091
lowerback 7.89076 2.58749 2.37683
upperback -4.29817 3.67685 -0.972027
thorax -8.77239 1.61759 -2.92401
lowerneck -3.0062 -7.14928 -11.682
upperneck 1.72626 -9.37984 9.8572
head 2.02111 -4.61243 4.52347
rclavicle 3.89369e-014 5.96354e-015
rhumerus -39.8846 18.3299 -98.425
rradius 42.2873
rwrist 24.1558
rhand -4.56495 -55.3567
rfingers 7.12502
rthumb 21.2114 -804.216
lclavicle 3.89369e-014 5.96354e-015
lhumerus -45.1757 18.5647 70.201
lradius 28.0222
lwrist -25.891
lhand -6.37391 -38.3966
lfingers 7.12502
lthumb 19.4729 -9.35174
rfemur -4.69161 12.9194 27.1738
rtibia 21.8747
rfoot -22.5728 -30.6893
rtoes -4.06176
lfemur -12.0233 -15.1711 -25.1104
ltibia 28.92
lfoot -30.0837 13.2494
ltoes -32.2692
443
root 8.51764 15.4072 19.7668 360.223 8.4819 0.173183
lowerback 7.75531 2.57216 2.26609
upperback -4.25867 3.64642 -0.883805
thorax -8.66403 1.6154 -2.75445
lowerneck -2.62855 -6.81487 -11.8949
upperneck 1.82266 -8.97466 10.0211
head 1.96198 -4.42055 4.64191
rclavicle -3.13086e-015 8.74653e-015
rhumerus -39.5667 17.8964 -98.0111
rradius 40.1472
rwrist 25.8092
rhand -5.41726 -54.4398
rfingers 7.12502
rthumb 20.3925 -803.389
lclavicle -3.13086e-015 8.74653e-015
lhumerus -44.4614 20.0132 69.4002
lradius 27.5438
lwrist -26.9506
lhand -9.20255 -39.4345
lfingers 7.12502
lthumb 16.7515 -10.1372
rfemur -4.47816 13.1047 27.0967
rtibia 21.6504
rfoot -21.8434 -30.4378
rtoes -6.11539
lfemur -11.7251 -15.2449 -25.2197
ltibia 28.7694
lfoot -30.1508 13.3899
ltoes -30.8663
444
root 8.51952 15.4116 19.7631 360.003 8.08823 0.236776
lowerback 7.66138 2.56216 2.1525
upperback -4.10258 3.61862 -0.840028
thorax -8.45052 1.61622 -2.62886
lowerneck -2.57597 -6.64109 -11.9873
upperneck 2.02531 -8.75828 10.1082
head 1.99766 -4.31463 4.69375
rclavicle 5.03546e-014 0
rhumerus -39.0494 17.0283 -97.3871
rradius 38.0313
rwrist 27.4696
rhand -6.23988 -54.1232
rfingers 7.12502
rthumb 19.6017 -803.155
lclavicle 5.03546e-014 0
lhumerus -43.6205 20.8576 69.0185
lradius 27.4028
lwrist -28.1387
lhand -11.7118 -39.9838
lfingers 7.12502
lthumb 14.3348 -10.4986
rfemur -4.16177 13.3451 27.0565
rtibia 21.4709
rfoot -21.8971 -30.2392
rtoes -5.88063
lfemur -11.2132 -15.4913 -25.3758
ltibia 28.5054
lfoot -30.7592 13.3117
ltoes -28.9348
445
root 8.51799 15.4202 19.759 359.896 7.69033 0.33645
lowerback 7.54673 2.62019 1.95176
upperback -4.03199 3.66921 -0.854408
thorax -8.31518 1.65555 -2.52944
lowerneck -2.69056 -6.58209 -11.8368
upperneck 2.45502 -8.69144 9.97657
head 2.12323 -4.28089 4.6232
rclavicle -5.67158e-015 -2.88238e-015
rhumerus -38.6382 15.887 -96.6933
rradius 36.1689
rwrist 28.8696
rhand -6.2999 -54.5651
rfingers 7.12502
rthumb 19.544 -803.603
lclavicle -5.67158e-015 -2.88238e-015
lhumerus -42.8498 21.1441 68.91
lradius 27.6718
lwrist -28.9934
lhand -13.3141 -39.7171
lfingers 7.12502
lthumb 12.7904 -10.1289
rfemur -3.99335 13.547 26.9618
rtibia 21.3169
rfoot -22.6233 -29.8854
rtoes -4.2235
lfemur -10.7872 -15.7597 -25.5344
ltibia 28.145
lfoot -32.1169 13.3699
ltoes -26.667
446
root 8.51883 15.4242 19.7513 359.752 7.49045 0.478222
lowerback 7.5992 2.49338 1.70207
upperback -4.13398 3.47168 -0.873714
thorax -8.4799 1.56824 -2.38972
lowerneck -2.50283 -6.39243 -11.5501
upperneck 2.93797 -8.48466 9.74166
head 2.18986 -4.18613 4.51713
rclavicle 4.35898e-014 -2.78299e-015
rhumerus -38.6593 15.017 -96.2171
rradius 34.5286
rwrist 30.1765
rhand -5.50514 -54.8151
rfingers 7.12502
rthumb 20.308 -803.773
lclavicle 4.35898e-014 -2.78299e-015
lhumerus -42.5793 21.2484 68.6605
lradius 28.218
lwrist -29.3132
lhand -13.9892 -38.8747
lfingers 7.12502
lthumb 12.1395 -9.24689
rfemur -3.78168 13.6617 26.8453
rtibia 21.1829
rfoot -23.8096 -29.5242
rtoes -2.09872
lfemur -10.4458 -16.1325 -25.7194
ltibia 27.6936
lfoot -30.7618 13.3564
ltoes -27.4437
447
root 8.52251 15.4308 19.7446 359.612 7.42351 0.729745
lowerback 7.84887 2.40631 1.55648
upperback -4.13118 3.33353 -0.977856
thorax -8.6317 1.50226 -2.41248
lowerneck -3.00138 -6.34135 -11.4083
upperneck 3.67409 -8.40401 9.59953
head 2.46862 -4.13655 4.42964
rclavicle -6.88292e-015 -9.44227e-015
rhumerus -38.4678 14.0228 -95.4974
rradius 33.1603
rwrist 31.178
rhand -4.48222 -55.2365
rfingers 7.12502
rthumb 21.2908 -804.087
lclavicle -6.88292e-015 -9.44227e-015
lhumerus -42.0272 20.8937 68.954
lradius 29.2632
lwrist -29.0086
lhand -13.7707 -37.3027
lfingers 7.12502
lthumb 12.3502 -7.68744
rfemur -3.5569 13.9893 26.64
rtibia 21.124
rfoot -23.8606 -29.6432
rtoes -1.57449
lfemur -10.0598 -16.4608 -26.039
ltibia 27.1376
lfoot -30.2069 13.2759
ltoes -28.3497
